<svg width="80" height="75" viewBox="0 0 80 75" fill="#162E51" xmlns="http://www.w3.org/2000/svg">
<path fill-rule="evenodd" clip-rule="evenodd" d="M13.7502 15.001C13.7502 23.2709 20.478 30 28.7495 30C37.0209 30 43.75 23.2709 43.75 15.001C43.75 13.859 43.6104 12.7506 43.3666 11.681C43.3523 11.5943 43.3311 11.5114 43.3024 11.4298C41.6947 4.87957 35.789 0 28.75 0C21.8701 0 16.0711 4.66206 14.3117 10.989C14.2481 11.1336 14.2101 11.2857 14.1945 11.4409C13.914 12.5854 13.75 13.7728 13.75 15.0009L13.7502 15.001ZM28.7495 26.9961C22.1351 26.9961 16.7512 21.6153 16.7512 15.001C16.7512 14.1414 16.846 13.3042 17.0193 12.4951C22.2891 8.90463 25.0352 9.79475 29.485 11.2621C32.3146 12.194 35.7908 13.3255 40.6304 13.4139C40.7002 13.935 40.7482 14.4611 40.7482 15.0009C40.7488 21.6153 35.3651 26.9961 28.7493 26.9961L28.7495 26.9961ZM28.7495 3.0036C33.7318 3.0036 38.0128 6.05744 39.8245 10.3897C35.8902 10.2045 33.0068 9.26077 30.4258 8.41057C26.7751 7.20626 23.5028 6.14282 19.0505 7.96738C21.2343 4.96477 24.7634 3.0036 28.7495 3.0036Z" fill="#11385B"/>
<path fill-rule="evenodd" clip-rule="evenodd" d="M1.19493 63.9611C9.09328 66.722 18.4015 68.1809 28.1085 68.1809C28.4115 68.1809 28.7145 68.179 29.0175 68.1766C29.3142 68.179 29.6091 68.1809 29.904 68.1809C35.8037 68.1809 41.5107 67.6467 46.8888 66.608C50.0534 71.6351 55.6763 75 62.0927 75C71.9668 75 80 67.0509 80 57.2811C80 47.5069 71.9669 39.5559 62.0927 39.5559C58.7574 39.5559 55.6413 40.4793 52.9637 42.0565C50.2835 38.112 46.6133 34.9494 42.0147 32.6604C41.8059 32.5549 41.5733 32.5012 41.3383 32.5012H34.3913L22.8912 32.5H16.6893C16.4543 32.5 16.2236 32.5549 16.0129 32.6591C6.20233 37.5462 2.42185 45.4824 0.980331 51.2813C-0.570164 57.5193 0.174215 62.5711 0.207891 62.7833C0.290185 63.3261 0.669858 63.7782 1.19418 63.9614L1.19493 63.9611ZM76.9992 57.2808C76.9992 65.4124 70.314 72.028 62.0938 72.028C55.9473 72.028 50.6592 68.3288 48.3799 63.0654C48.365 63.0303 48.3494 62.9957 48.3344 62.96C48.1586 62.5418 47.9978 62.1155 47.86 61.6794C47.8519 61.6535 47.8456 61.627 47.8388 61.6017C47.7172 61.2137 47.6168 60.8165 47.5296 60.4162C47.5096 60.3267 47.4878 60.2385 47.4703 60.1484C47.388 59.7389 47.3244 59.3231 47.2771 58.9031C47.2665 58.8093 47.2584 58.7149 47.2509 58.6199C47.2097 58.1789 47.1823 57.7329 47.1823 57.2814C47.1823 56.8305 47.2097 56.3864 47.2503 55.946C47.259 55.8522 47.2665 55.7585 47.2764 55.6647C47.3213 55.265 47.3837 54.8709 47.4597 54.4804C47.4847 54.3496 47.5152 54.2189 47.5445 54.0875C47.6212 53.7445 47.7079 53.4059 47.8089 53.0716C47.8537 52.9242 47.903 52.7773 47.9529 52.6311C48.047 52.3523 48.1486 52.0779 48.2596 51.8058C48.3132 51.6732 48.365 51.5387 48.4229 51.408C48.5732 51.0669 48.7378 50.7313 48.913 50.4044C48.9703 50.2958 49.032 50.1897 49.0919 50.0824C49.2933 49.7296 49.5003 49.3804 49.7291 49.0461C49.7359 49.0363 49.7434 49.0276 49.7496 49.0171C50.0009 48.6501 50.2708 48.2967 50.5533 47.9531C50.5745 47.9266 50.5963 47.9001 50.6175 47.8741C53.355 44.6111 57.4835 42.5286 62.0944 42.5286C70.3126 42.528 76.9992 49.1453 76.9992 57.2808ZM32.48 35.4721L31.1982 40.683H26.1465L24.8211 35.4721H32.48ZM3.89698 51.9909C5.74868 44.5526 10.1719 38.9961 17.0504 35.4721H21.7219L23.5193 42.531C23.6877 43.1904 24.2868 43.6543 24.9769 43.6543H32.3772C33.0692 43.6543 33.6721 43.1867 33.8379 42.5199L35.5699 35.472H40.9783C44.9808 37.5242 48.1809 40.3054 50.5138 43.7554C50.5051 43.7715 50.4958 43.7875 50.487 43.8029C46.633 47.0561 44.1778 51.8864 44.1778 57.2801C44.1778 59.5154 44.6155 61.6466 45.3836 63.6187C45.411 63.6989 45.4241 63.7772 45.4571 63.8586C40.5189 64.7555 35.2988 65.2088 29.9054 65.2088C29.6161 65.2088 29.3225 65.207 29.0313 65.2045H29.0045C28.7059 65.2064 28.4085 65.2088 28.1099 65.2088C19.1036 65.2088 10.4755 63.9154 3.08759 61.4622C2.95854 59.8578 2.84819 56.2123 3.89744 51.9908L3.89698 51.9909Z" fill="#11385B"/>
<path fill-rule="evenodd" clip-rule="evenodd" d="M58.4153 64.6029C58.7014 64.8687 59.0677 65 59.4346 65C59.8208 65 60.2032 64.8558 60.4937 64.5673L71.4363 53.773C72.0209 53.1949 72.0209 52.2597 71.4382 51.6827C70.8524 51.1059 69.9028 51.1059 69.32 51.6821L59.3991 61.4675L55.6441 58.0204C55.039 57.4638 54.0913 57.4976 53.5266 58.0953C52.9638 58.6924 52.9961 59.6289 53.6012 60.1837L58.4153 64.6029Z" fill="#11385B"/>
<path fill-rule="evenodd" clip-rule="evenodd" d="M29.0653 52.5C30.2665 52.5 31.25 51.5173 31.25 50.3157C31.25 49.1085 30.2664 48.125 29.0653 48.125C27.8572 48.125 26.875 49.1077 26.875 50.3157C26.8757 51.5174 27.8572 52.5 29.0653 52.5Z" fill="#11385B"/>
<path fill-rule="evenodd" clip-rule="evenodd" d="M29.0653 60.625C30.2665 60.625 31.25 59.7826 31.25 58.747C31.25 57.7175 30.2664 56.875 29.0653 56.875C27.8572 56.875 26.875 57.7174 26.875 58.747C26.8757 59.7831 27.8572 60.625 29.0653 60.625Z" fill="#11385B"/>
</svg>
