<?xml version="1.0" encoding="utf-8"?>
<!-- Generator: Adobe Illustrator 19.2.1, SVG Export Plug-In . SVG Version: 6.00 Build 0)  -->
<svg version="1.1" id="Layer_1" xmlns="http://www.w3.org/2000/svg" xmlns:xlink="http://www.w3.org/1999/xlink" x="0px" y="0px"
	 viewBox="0 0 170 210" style="enable-background:new 0 0 170 210;" xml:space="preserve">
<style type="text/css">
	.st0{fill:#112E51;}
	.st1{fill:#02BFE7;}
	.st2{clip-path:url(#SVGID_2_);}
	.st3{fill:#FFFFFF;}
	.st4{clip-path:url(#SVGID_4_);}
	.st5{fill:#E31C3D;}
	.st6{fill:#0071BC;}
	.st7{clip-path:url(#SVGID_6_);}
	.st8{fill:#FAD980;}
	.st9{fill:#FDB81E;}
	.st10{clip-path:url(#SVGID_8_);}
</style>
<polygon class="st0" points="26.6,131.1 10.8,156 82.4,203.1 154,156 138.2,131.1 "/>
<g>
	<polygon class="st6" points="14,61.5 82.4,17.1 150.7,61.5 150.7,151.3 14,151.3 	"/>
	<polygon class="st6" points="150.7,151.3 82.4,196.3 14,151.3 	"/>
</g>
<g>
	<polygon class="st0" points="150.7,151.3 150.7,61.5 82.4,108.1 82.4,196.3 	"/>
</g>
<g>
	<defs>
		<polygon id="SVGID_5_" points="82.4,196.3 150.7,151.3 150.7,61.5 82.4,108.1 14,61.5 14,151.3 		"/>
	</defs>
	<clipPath id="SVGID_2_">
		<use xlink:href="#SVGID_5_"  style="overflow:visible;"/>
	</clipPath>
	<g class="st2">
		<rect x="2.4" y="193.5" class="st0" width="160" height="2"/>
		<rect x="2.4" y="189.5" class="st0" width="160" height="2"/>
		<rect x="2.4" y="185.5" class="st0" width="160" height="2"/>
		<rect x="2.4" y="181.5" class="st0" width="160" height="2"/>
		<rect x="2.4" y="177.5" class="st0" width="160" height="2"/>
		<rect x="2.4" y="173.5" class="st0" width="160" height="2"/>
		<rect x="2.4" y="169.5" class="st0" width="160" height="2"/>
		<rect x="2.4" y="165.5" class="st0" width="160" height="2"/>
		<rect x="2.4" y="161.5" class="st0" width="160" height="2"/>
		<rect x="2.4" y="157.5" class="st0" width="160" height="2"/>
		<rect x="2.4" y="153.5" class="st0" width="160" height="2"/>
		<rect x="2.4" y="149.5" class="st0" width="160" height="2"/>
		<rect x="2.4" y="145.5" class="st0" width="160" height="2"/>
		<rect x="2.4" y="141.5" class="st0" width="160" height="2"/>
		<rect x="2.4" y="137.5" class="st0" width="160" height="2"/>
		<rect x="2.4" y="133.5" class="st0" width="160" height="2"/>
		<rect x="2.4" y="129.5" class="st0" width="160" height="2"/>
		<rect x="2.4" y="125.5" class="st0" width="160" height="2"/>
		<rect x="2.4" y="121.5" class="st0" width="160" height="2"/>
		<rect x="2.4" y="117.5" class="st0" width="160" height="2"/>
		<rect x="2.4" y="113.5" class="st0" width="160" height="2"/>
		<rect x="2.4" y="109.5" class="st0" width="160" height="2"/>
		<rect x="2.4" y="105.5" class="st0" width="160" height="2"/>
		<rect x="2.4" y="101.5" class="st0" width="160" height="2"/>
		<rect x="2.4" y="97.5" class="st0" width="160" height="2"/>
		<rect x="2.4" y="93.5" class="st0" width="160" height="2"/>
		<rect x="2.4" y="89.5" class="st0" width="160" height="2"/>
		<rect x="2.4" y="85.5" class="st0" width="160" height="2"/>
		<rect x="2.4" y="81.5" class="st0" width="160" height="2"/>
		<rect x="2.4" y="77.5" class="st0" width="160" height="2"/>
		<rect x="2.4" y="73.5" class="st0" width="160" height="2"/>
		<rect x="2.4" y="69.5" class="st0" width="160" height="2"/>
		<rect x="2.4" y="65.5" class="st0" width="160" height="2"/>
		<rect x="2.4" y="61.5" class="st0" width="160" height="2"/>
		<rect x="2.4" y="57.5" class="st0" width="160" height="2"/>
		<rect x="2.4" y="53.5" class="st0" width="160" height="2"/>
	</g>
</g>
<rect x="31.3" y="57.7" transform="matrix(-1 5.339139e-11 -5.339139e-11 -1 163.5459 122.939)" class="st0" width="100.9" height="7.6"/>
<rect x="43.5" y="8.5" transform="matrix(-1 4.316624e-11 -4.316624e-11 -1 165.6376 73.7284)" class="st3" width="78.5" height="56.8"/>
<path class="st0" d="M94.6,54.4H70.4c-1,0-1.8-0.8-1.8-1.8V28.5c0-1,0.8-1.8,1.8-1.8h24.2c1,0,1.8,0.8,1.8,1.8v24.2
	C96.4,53.6,95.6,54.4,94.6,54.4z M71.4,50.8H92V30.3H71.4V50.8z"/>
<g>
	<path class="st5" d="M84.9,48.2c-0.7,0-1.5-0.3-2.1-0.7l-8.2-6.4c-1.5-1.1-1.7-3.3-0.6-4.8c0.6-0.8,1.6-1.3,2.7-1.3
		c0.8,0,1.5,0.2,2.1,0.7l5.7,4.4l19.9-22c0.6-0.7,1.6-1.1,2.5-1.1c0.8,0,1.6,0.3,2.3,0.9c1.4,1.3,1.5,3.4,0.2,4.8L87.4,47.1
		C86.8,47.8,85.9,48.2,84.9,48.2z"/>
	<g>
		<path class="st3" d="M107,18.1c0.6,0,1.1,0.2,1.6,0.6c1,0.9,1.1,2.4,0.2,3.4L86.7,46.4c-0.5,0.5-1.1,0.8-1.8,0.8
			c-0.5,0-1-0.2-1.5-0.5l-8.2-6.4c-1-0.8-1.2-2.3-0.4-3.4c0.5-0.6,1.2-0.9,1.9-0.9c0.5,0,1,0.2,1.5,0.5l6.4,5l20.6-22.7
			C105.7,18.3,106.3,18.1,107,18.1 M107,16.1L107,16.1c-1.2,0-2.4,0.5-3.3,1.4L84.4,38.9l-5-3.9c-0.8-0.6-1.7-0.9-2.7-0.9
			c-1.4,0-2.6,0.6-3.5,1.7c-1.5,1.9-1.1,4.7,0.8,6.2l8.2,6.4c0.8,0.6,1.7,0.9,2.7,0.9c1.2,0,2.4-0.5,3.3-1.4l22.1-24.4
			c1.6-1.8,1.5-4.6-0.3-6.2C109.1,16.5,108.1,16.1,107,16.1L107,16.1z"/>
	</g>
</g>
</svg>
