<svg width="82" height="69" viewBox="0 0 82 69" fill="#162E51" xmlns="http://www.w3.org/2000/svg">
<path d="M79.9201 36.6003H68.8501V2.11035C68.8501 1.57992 68.6394 1.07121 68.2643 0.696138C67.8892 0.321066 67.3805 0.110352 66.8501 0.110352H12.1801C11.6496 0.110352 11.1409 0.321066 10.7659 0.696138C10.3908 1.07121 10.1801 1.57992 10.1801 2.11035V10.2204H2.08008C1.54965 10.2204 1.04094 10.4311 0.665864 10.8061C0.290792 11.1812 0.0800781 11.6899 0.0800781 12.2204V66.8904C0.0800781 67.4208 0.290792 67.9295 0.665864 68.3046C1.04094 68.6796 1.54965 68.8904 2.08008 68.8904H24.4201V64.8904H4.08008V14.2204H10.1801V56.7803C10.1801 57.3108 10.3908 57.8195 10.7659 58.1946C11.1409 58.5696 11.6496 58.7803 12.1801 58.7803H34.4001V66.8904C34.4001 67.4208 34.6108 67.9295 34.9859 68.3046C35.3609 68.6796 35.8696 68.8904 36.4001 68.8904H79.9201C80.4505 68.8904 80.9592 68.6796 81.3343 68.3046C81.7094 67.9295 81.9201 67.4208 81.9201 66.8904V38.6003C81.9201 38.0699 81.7094 37.5612 81.3343 37.1861C80.9592 36.8111 80.4505 36.6003 79.9201 36.6003ZM58.1601 54.8704L41.7501 40.6003H74.5701L58.1601 54.8704ZM38.4001 42.9904L49.6201 52.7403L38.4001 62.5004V42.9904ZM52.6701 55.3904L56.8501 59.0303C57.2137 59.3456 57.6788 59.5191 58.1601 59.5191C58.6413 59.5191 59.1064 59.3456 59.4701 59.0303L63.6601 55.3904L74.5701 64.8904H41.7501L52.6701 55.3904ZM66.6701 52.7403L77.8801 42.9904V62.5004L66.6701 52.7403ZM14.1401 54.7403V4.11035H64.8501V36.6003H36.4001C35.8696 36.6003 35.3609 36.8111 34.9859 37.1861C34.6108 37.5612 34.4001 38.0699 34.4001 38.6003V54.7803L14.1401 54.7403ZM58.1001 13.1504H20.9201V9.15035H58.1001V13.1504ZM58.1001 22.3004H20.9201V18.3004H58.1001V22.3004ZM58.1001 31.4504H20.9201V27.5004H58.1001V31.4504ZM20.9201 36.6003H28.5301V40.6003H20.9201V36.6003ZM20.9201 45.7504H28.5301V49.7504H20.9201V45.7504Z" fill="#162E51"/>
</svg>
