<svg width="84" height="68" viewBox="0 0 84 68" fill="#162E51" xmlns="http://www.w3.org/2000/svg">
<path d="M81.3463 41.6154H77.5386V7.34615C77.5367 5.66363 76.8675 4.05056 75.6778 2.86083C74.4881 1.67111 72.875 1.00189 71.1925 1H7.73092C6.04839 1.00189 4.43532 1.67111 3.2456 2.86083C2.05587 4.05056 1.38666 5.66363 1.38477 7.34615L1.38477 47.9615C1.38666 49.6441 2.05587 51.2571 3.2456 52.4469C4.43532 53.6366 6.04839 54.3058 7.73092 54.3077H47.0771V60.6538C47.0771 60.9905 47.2108 61.3133 47.4488 61.5513C47.6868 61.7894 48.0097 61.9231 48.3463 61.9231H53.4232V65.7308C53.4232 66.0674 53.5569 66.3902 53.795 66.6283C54.033 66.8663 54.3558 67 54.6925 67H75.0001C75.3368 67 75.6596 66.8663 75.8976 66.6283C76.1357 66.3902 76.2694 66.0674 76.2694 65.7308V61.9231H81.3463C81.6829 61.9231 82.0058 61.7894 82.2438 61.5513C82.4818 61.3133 82.6155 60.9905 82.6155 60.6538V42.8846C82.6155 42.548 82.4818 42.2252 82.2438 41.9871C82.0058 41.7491 81.6829 41.6154 81.3463 41.6154ZM54.6925 41.6154V36.5385H75.0001V41.6154H54.6925ZM7.73092 3.53846H71.1925C72.0823 3.53965 72.9437 3.85199 73.6275 4.42139C74.3113 4.9908 74.7744 5.78141 74.9367 6.65633L41.3873 26.3231C40.8032 26.665 40.1385 26.8453 39.4617 26.8453C38.7848 26.8453 38.1202 26.665 37.5361 26.3231L3.98669 6.65633C4.14896 5.78141 4.61209 4.9908 5.29589 4.42139C5.97969 3.85199 6.84109 3.53965 7.73092 3.53846ZM47.0771 42.8846V51.7692H7.73092C6.72142 51.7681 5.7536 51.3665 5.03977 50.6527C4.32595 49.9389 3.9244 48.971 3.92323 47.9615V9.56144L36.2523 28.513C37.2258 29.0829 38.3336 29.3833 39.4617 29.3833C40.5898 29.3833 41.6976 29.0829 42.6711 28.513L75.0001 9.56144V34H53.4232C53.0866 34 52.7638 34.1337 52.5257 34.3717C52.2877 34.6098 52.154 34.9326 52.154 35.2692V41.6154H48.3463C48.0097 41.6154 47.6868 41.7491 47.4488 41.9871C47.2108 42.2252 47.0771 42.548 47.0771 42.8846ZM55.9617 64.4615V56.8462H73.7309V64.4615H55.9617ZM80.0771 59.3846H76.2694V56.8462C76.606 56.8462 76.9288 56.7124 77.1669 56.4744C77.4049 56.2364 77.5386 55.9135 77.5386 55.5769C77.5386 55.2403 77.4049 54.9175 77.1669 54.6794C76.9288 54.4414 76.606 54.3077 76.2694 54.3077H53.4232C53.0866 54.3077 52.7638 54.4414 52.5257 54.6794C52.2877 54.9175 52.154 55.2403 52.154 55.5769C52.154 55.9135 52.2877 56.2364 52.5257 56.4744C52.7638 56.7124 53.0866 56.8462 53.4232 56.8462V59.3846H49.6155V44.1538H80.0771V59.3846Z" fill="#162E51" stroke="#162E51"/>
<path d="M73.7321 46.6914C73.3955 46.6914 73.0727 46.8251 72.8346 47.0632C72.5966 47.3012 72.4629 47.624 72.4629 47.9606C72.4629 48.2973 72.5966 48.6201 72.8346 48.8581C73.0727 49.0961 73.3955 49.2299 73.7321 49.2299H76.2706C76.6072 49.2299 76.93 49.0961 77.1681 48.8581C77.4061 48.6201 77.5398 48.2973 77.5398 47.9606C77.5398 47.624 77.4061 47.3012 77.1681 47.0632C76.93 46.8251 76.6072 46.6914 76.2706 46.6914H73.7321Z" fill="#162E51" stroke="#162E51"/>
</svg>
