<svg width="78" height="77" viewBox="0 0 78 77" fill="#162E51" xmlns="http://www.w3.org/2000/svg">
<path d="M57.4998 66.0259L49.7246 58.2759L53.2749 54.7256L57.4998 58.9756L64.7246 51.7256L68.2749 55.2759L57.4998 66.0259Z" fill="#11385B" stroke="#EDF2F7" stroke-width="2"/>
<path d="M34 76H14C7.09986 76 1.5 70.4001 1.5 63.5V13.5C1.5 6.59986 7.09986 1 14 1H54C60.9002 1 66.5 6.59986 66.5 13.5V33.5H61.5V13.5C61.5 9.375 58.125 6 54 6H14C9.875 6 6.5 9.375 6.5 13.5V63.5C6.5 67.625 9.875 71 14 71H34V76Z" fill="#11385B" stroke="#EDF2F7" stroke-width="2"/>
<path d="M68.999 75.999H48.999C44.874 75.999 41.499 72.624 41.499 68.499V48.499C41.499 44.374 44.874 40.999 48.999 40.999H68.999C73.124 40.999 76.499 44.374 76.499 48.499V68.499C76.499 72.624 73.124 75.999 68.999 75.999ZM48.999 45.999C47.624 45.999 46.499 47.124 46.499 48.499V68.499C46.499 69.874 47.624 70.999 48.999 70.999H68.999C70.374 70.999 71.499 69.874 71.499 68.499V48.499C71.499 47.124 70.374 45.999 68.999 45.999H48.999Z" fill="#11385B" stroke="#EDF2F7" stroke-width="2"/>
<path d="M14 16H54V21H14V16Z" fill="#11385B" stroke="#EDF2F7" stroke-width="2"/>
<path d="M14 53.5H34V58.5H14V53.5Z" fill="#11385B" stroke="#EDF2F7" stroke-width="2"/>
<path d="M14 28.5H54V33.5H14V28.5Z" fill="#11385B" stroke="#EDF2F7" stroke-width="2"/>
<path d="M14 40.999H34V45.999H14V40.999Z" fill="#11385B" stroke="#EDF2F7" stroke-width="2"/>
</svg>
