<svg id="Layer_1" data-name="Layer 1" xmlns="http://www.w3.org/2000/svg" xmlns:xlink="http://www.w3.org/1999/xlink" viewBox="0 0 160 195.17"><defs><style>.cls-1,.cls-5{fill:none;}.cls-2{fill:#112e51;}.cls-3{fill:#0071bc;}.cls-4{clip-path:url(#clip-path);}.cls-5{stroke:#112e51;stroke-miterlimit:10;stroke-width:2px;}.cls-6{fill:#fff;}.cls-7{fill:#ebebeb;}.cls-8{fill:#e31c3d;}</style><clipPath id="clip-path" transform="translate(-6 -0.17)"><polygon class="cls-1" points="85.97 188.51 154.3 143.53 154.3 53.72 85.97 100.29 17.64 53.72 17.64 143.53 85.97 188.51"/></clipPath></defs><title>Ballot_box</title><polygon class="cls-2" points="24.16 123.12 8.39 148.05 79.97 195.17 151.55 148.05 135.77 123.12 24.16 123.12"/><polygon class="cls-3" points="11.64 53.55 79.97 9.16 148.3 53.55 148.3 143.37 11.64 143.37 11.64 53.55"/><polygon class="cls-3" points="148.3 143.37 79.97 188.34 11.64 143.37 148.3 143.37"/><polygon class="cls-2" points="148.3 143.37 148.3 53.55 79.97 100.12 79.97 188.34 148.3 143.37"/><g class="cls-4"><line class="cls-5" y1="186.5" x2="160" y2="186.5"/><line class="cls-5" y1="182.5" x2="160" y2="182.5"/><line class="cls-5" y1="178.5" x2="160" y2="178.5"/><line class="cls-5" y1="174.5" x2="160" y2="174.5"/><line class="cls-5" y1="170.5" x2="160" y2="170.5"/><line class="cls-5" y1="166.5" x2="160" y2="166.5"/><line class="cls-5" y1="162.5" x2="160" y2="162.5"/><line class="cls-5" y1="158.5" x2="160" y2="158.5"/><line class="cls-5" y1="154.5" x2="160" y2="154.5"/><line class="cls-5" y1="150.5" x2="160" y2="150.5"/><line class="cls-5" y1="146.5" x2="160" y2="146.5"/><line class="cls-5" y1="142.5" x2="160" y2="142.5"/><line class="cls-5" y1="138.5" x2="160" y2="138.5"/><line class="cls-5" y1="134.5" x2="160" y2="134.5"/><line class="cls-5" y1="130.5" x2="160" y2="130.5"/><line class="cls-5" y1="126.5" x2="160" y2="126.5"/><line class="cls-5" y1="122.5" x2="160" y2="122.5"/><line class="cls-5" y1="118.5" x2="160" y2="118.5"/><line class="cls-5" y1="114.5" x2="160" y2="114.5"/><line class="cls-5" y1="110.5" x2="160" y2="110.5"/><line class="cls-5" y1="106.5" x2="160" y2="106.5"/><line class="cls-5" y1="102.5" x2="160" y2="102.5"/><line class="cls-5" y1="98.5" x2="160" y2="98.5"/><line class="cls-5" y1="94.5" x2="160" y2="94.5"/><line class="cls-5" y1="90.5" x2="160" y2="90.5"/><line class="cls-5" y1="86.5" x2="160" y2="86.5"/><line class="cls-5" y1="82.5" x2="160" y2="82.5"/><line class="cls-5" y1="78.5" x2="160" y2="78.5"/><line class="cls-5" y1="74.5" x2="160" y2="74.5"/><line class="cls-5" y1="70.5" x2="160" y2="70.5"/><line class="cls-5" y1="66.5" x2="160" y2="66.5"/><line class="cls-5" y1="62.5" x2="160" y2="62.5"/><line class="cls-5" y1="58.5" x2="160" y2="58.5"/><line class="cls-5" y1="54.5" x2="160" y2="54.5"/><line class="cls-5" y1="50.5" x2="160" y2="50.5"/><line class="cls-5" y1="46.5" x2="160" y2="46.5"/></g><rect class="cls-2" x="34.92" y="49.88" width="100.89" height="7.57" transform="translate(164.73 107.16) rotate(180)"/><rect class="cls-6" x="47.14" y="0.67" width="78.55" height="56.78" transform="translate(166.83 57.95) rotate(180)"/><path class="cls-7" d="M126.19,57.95H46.64V0.17h79.55V57.95Zm-78.55-1h77.55V1.17H47.64V56.95Z" transform="translate(-6 -0.17)"/><path class="cls-8" d="M88.5,39.4A2.38,2.38,0,0,1,87,38.9l-8.19-6.38a2.39,2.39,0,0,1,2.94-3.77l6.44,5L108.79,11a2.39,2.39,0,1,1,3.54,3.21L90.27,38.62A2.38,2.38,0,0,1,88.5,39.4Z" transform="translate(-6 -0.17)"/><path class="cls-2" d="M96,35.46v6.32a1.09,1.09,0,0,1-1.17.9H76.57c-0.54,0-.57-0.35-0.57-0.9V23.51c0-.54,0-0.84.57-0.84H94.83a0.93,0.93,0,0,1,.65.18l2.68-2.92a4.93,4.93,0,0,0-3.33-1.26H76.57A4.52,4.52,0,0,0,72,23.51V41.77a4.57,4.57,0,0,0,4.57,4.9H94.83a5.07,5.07,0,0,0,5.17-4.9V31Z" transform="translate(-6 -0.17)"/></svg>