<?xml version="1.0" encoding="UTF-8" standalone="no"?>
<svg width="89px" height="116px" viewBox="0 0 89 116" version="1.1" xmlns="http://www.w3.org/2000/svg" xmlns:xlink="http://www.w3.org/1999/xlink">
    <!-- Generator: Sketch 3.8.3 (29802) - http://www.bohemiancoding.com/sketch -->
    <title>Group 11</title>
    <desc>Created with Sketch.</desc>
    <defs>
        <polygon id="path-1" points="0.459977241 0.039060956 1.6659981 0.660682578 8.52029706 0.660682578 9.72631793 0.039060956 0.459977241 0.039060956"></polygon>
        <polygon id="path-3" points="0.101838808 0.039060956 1.30785967 0.660682578 17.8103255 0.660682578 19.0163464 0.039060956 0.101838808 0.039060956"></polygon>
        <polygon id="path-5" points="0.0720786842 0.039060956 1.27809955 0.660682578 27.4287323 0.660682578 28.6347531 0.039060956 0.0720786842 0.039060956"></polygon>
        <polygon id="path-7" points="0.186805017 0.039060956 1.39282588 0.660682578 37.1916255 0.660682578 38.3976464 0.039060956 0.186805017 0.039060956"></polygon>
        <polygon id="path-9" points="0.30153135 0.039060956 1.50755221 0.660682578 46.9545187 0.660682578 48.1605396 0.039060956 0.30153135 0.039060956"></polygon>
        <polygon id="path-11" points="0.416257683 0.039060956 1.62227854 0.660682578 56.717412 0.660682578 57.9234328 0.039060956"></polygon>
        <polygon id="path-13" points="0.0581192497 0.039060956 1.26414011 0.660682578 66.0074404 0.660682578 67.2134613 0.039060956 0.0581192497 0.039060956"></polygon>
        <polygon id="path-15" points="0.0283591263 0.039060956 1.23437999 0.660682578 75.6258472 0.660682578 76.831868 0.039060956 0.0283591263 0.039060956"></polygon>
        <polygon id="path-17" points="0.0957157097 0.039060956 0.0957157097 0.576577172 0.258890332 0.660682578 84.2985244 0.660682578 84.461699 0.576577172 84.461699 0.039060956 0.0957157097 0.039060956"></polygon>
        <polygon id="path-19" points="0.0957157097 0.039060956 0.0957157097 0.660682578 84.461699 0.660682578 84.461699 0.039060956 0.0957157097 0.039060956"></polygon>
        <polygon id="path-21" points="0.0957157097 0.039060956 0.0957157097 0.660682578 84.461699 0.660682578 84.461699 0.039060956"></polygon>
        <polygon id="path-23" points="0.0957157097 0.039060956 0.0957157097 0.660682578 84.461699 0.660682578 84.461699 0.039060956"></polygon>
        <polygon id="path-25" points="0.0957157097 0.039060956 0.0957157097 0.660682578 84.461699 0.660682578 84.461699 0.039060956 0.0957157097 0.039060956"></polygon>
        <polygon id="path-27" points="0.0957157097 0.039060956 0.0957157097 0.660682578 84.461699 0.660682578 84.461699 0.039060956"></polygon>
        <polygon id="path-29" points="0.0957157097 0.039060956 0.0957157097 0.660682578 84.461699 0.660682578 84.461699 0.039060956 0.0957157097 0.039060956"></polygon>
        <polygon id="path-31" points="0.0957157097 0.039060956 0.0957157097 0.660682578 84.461699 0.660682578 84.461699 0.039060956 0.0957157097 0.039060956"></polygon>
        <polygon id="path-33" points="0.0957157097 0.039060956 0.0957157097 0.660682578 84.461699 0.660682578 84.461699 0.039060956"></polygon>
        <polygon id="path-35" points="0.0957157097 0.039060956 0.0957157097 0.660682578 84.461699 0.660682578 84.461699 0.039060956 0.0957157097 0.039060956"></polygon>
        <polygon id="path-37" points="0.0957157097 0.039060956 0.0957157097 0.660682578 84.461699 0.660682578 84.461699 0.039060956"></polygon>
        <polygon id="path-39" points="0.0957157097 0.039060956 0.0957157097 0.660682578 84.461699 0.660682578 84.461699 0.039060956 0.0957157097 0.039060956"></polygon>
        <polygon id="path-41" points="0.0957157097 0.039060956 0.0957157097 0.660682578 84.461699 0.660682578 84.461699 0.039060956 0.0957157097 0.039060956"></polygon>
        <polygon id="path-43" points="0.0957157097 0.039060956 0.0957157097 0.660682578 84.461699 0.660682578 84.461699 0.039060956 0.0957157097 0.039060956"></polygon>
        <path d="M39.2590613,0.660682578 L38.105512,0.039060956 L0.0957157097,0.039060956 L0.0957157097,0.660682578 L39.2590613,0.660682578 L39.2590613,0.660682578 Z M84.461699,0.660682578 L84.461699,0.039060956 L46.4519028,0.039060956 L45.2983534,0.660682578 L84.461699,0.660682578 L84.461699,0.660682578 Z" id="path-45"></path>
        <path d="M34.644864,0.660682578 L33.4913147,0.039060956 L0.0957157097,0.039060956 L0.0957157097,0.660682578 L34.644864,0.660682578 L34.644864,0.660682578 Z M84.461699,0.660682578 L84.461699,0.039060956 L51.0661001,0.039060956 L49.9125507,0.660682578 L84.461699,0.660682578 L84.461699,0.660682578 Z" id="path-47"></path>
        <path d="M30.0306667,0.660682578 L28.8771174,0.039060956 L0.0957157097,0.039060956 L0.0957157097,0.660682578 L30.0306667,0.660682578 L30.0306667,0.660682578 Z M84.461699,0.660682578 L84.461699,0.039060956 L55.6802973,0.039060956 L54.526748,0.660682578 L84.461699,0.660682578 L84.461699,0.660682578 Z" id="path-49"></path>
        <path d="M25.4164694,0.660682578 L24.2629201,0.039060956 L0.0957157097,0.039060956 L0.0957157097,0.660682578 L25.4164694,0.660682578 L25.4164694,0.660682578 Z M84.461699,0.660682578 L84.461699,0.039060956 L60.2944946,0.039060956 L59.1409453,0.660682578 L84.461699,0.660682578 L84.461699,0.660682578 Z" id="path-51"></path>
        <path d="M20.8022721,0.660682578 L19.6487228,0.039060956 L0.0957157097,0.039060956 L0.0957157097,0.660682578 L20.8022721,0.660682578 L20.8022721,0.660682578 Z M84.461699,0.660682578 L84.461699,0.039060956 L64.9086919,0.039060956 L63.7551426,0.660682578 L84.461699,0.660682578 L84.461699,0.660682578 Z" id="path-53"></path>
        <path d="M16.1880748,0.660682578 L15.0345255,0.039060956 L0.0957157097,0.039060956 L0.0957157097,0.660682578 L16.1880748,0.660682578 L16.1880748,0.660682578 Z M84.461699,0.660682578 L84.461699,0.039060956 L69.5228892,0.039060956 L68.3693399,0.660682578 L84.461699,0.660682578 L84.461699,0.660682578 Z" id="path-55"></path>
        <path d="M11.5738775,0.660682578 L10.4203282,0.039060956 L0.0957157097,0.039060956 L0.0957157097,0.660682578 L11.5738775,0.660682578 L11.5738775,0.660682578 Z M84.461699,0.660682578 L84.461699,0.039060956 L74.1370865,0.039060956 L72.9835372,0.660682578 L84.461699,0.660682578 L84.461699,0.660682578 Z" id="path-57"></path>
        <path d="M6.95968025,0.660682578 L5.80613093,0.039060956 L0.0957157097,0.039060956 L0.0957157097,0.660682578 L6.95968025,0.660682578 L6.95968025,0.660682578 Z M84.461699,0.660682578 L84.461699,0.039060956 L78.7512838,0.039060956 L77.5977345,0.660682578 L84.461699,0.660682578 L84.461699,0.660682578 Z" id="path-59"></path>
        <path d="M2.34548296,0.660682578 L1.19193363,0.039060956 L0.0957157097,0.039060956 L0.0957157097,0.660682578 L2.34548296,0.660682578 L2.34548296,0.660682578 Z M84.461699,0.660682578 L84.461699,0.039060956 L83.3654811,0.039060956 L82.2119318,0.660682578 L84.461699,0.660682578 L84.461699,0.660682578 Z" id="path-61"></path>
    </defs>
    <g id="Page-1" stroke="none" stroke-width="1" fill="none" fill-rule="evenodd">
        <g id="Home---no-state-selected" transform="translate(-147.000000, -357.000000)">
            <g id="Group-11" transform="translate(147.000000, 358.000000)">
                <polygon id="Fill-1" fill="#112E51" points="10.1522791 76.2208811 0.412946233 91.7216378 44.6035641 114.794368 88.7941819 91.7216378 79.054849 76.2208811"></polygon>
                <polygon id="Fill-2" fill="#0071BC" points="2.420202 32.9768405 44.603811 11.6023811 86.7868027 32.9768405 86.7868027 88.8084081 2.420202 88.8084081"></polygon>
                <polygon id="Fill-3" fill="#0071BC" points="86.7869879 88.8081595 44.6033789 110.549997 2.4203872 88.8081595"></polygon>
                <polygon id="Fill-4" fill="#112E51" points="86.7869879 88.8082838 86.7869879 32.9767162 44.6033789 55.7087973 44.6033789 110.550122"></polygon>
                <g id="Group-107" transform="translate(2.324918, 33.528693)">
                    <g id="Group-13" transform="translate(37.185560, 74.594595)">
                        <mask id="mask-2" fill="white">
                            <use xlink:href="#path-1"></use>
                        </mask>
                        <g id="Clip-12"></g>
                        <path d="M-44.2759975,0.039060956 L54.500198,0.039060956" id="Stroke-11" stroke="#112E51" stroke-width="2" mask="url(#mask-2)"></path>
                    </g>
                    <g id="Group-16" transform="translate(32.719615, 72.108108)">
                        <mask id="mask-4" fill="white">
                            <use xlink:href="#path-3"></use>
                        </mask>
                        <g id="Clip-15"></g>
                        <path d="M-39.8100525,0.039060956 L58.9661431,0.039060956" id="Stroke-14" stroke="#112E51" stroke-width="2" mask="url(#mask-4)"></path>
                    </g>
                    <g id="Group-19" transform="translate(27.925291, 69.621622)">
                        <mask id="mask-6" fill="white">
                            <use xlink:href="#path-5"></use>
                        </mask>
                        <g id="Clip-18"></g>
                        <path d="M-35.0157292,0.039060956 L63.7604664,0.039060956" id="Stroke-17" stroke="#112E51" stroke-width="2" mask="url(#mask-6)"></path>
                    </g>
                    <g id="Group-22" transform="translate(22.986482, 67.135135)">
                        <mask id="mask-8" fill="white">
                            <use xlink:href="#path-7"></use>
                        </mask>
                        <g id="Clip-21"></g>
                        <path d="M-30.0769194,0.039060956 L68.6992762,0.039060956" id="Stroke-20" stroke="#112E51" stroke-width="2" mask="url(#mask-8)"></path>
                    </g>
                    <g id="Group-25" transform="translate(18.047672, 64.648649)">
                        <mask id="mask-10" fill="white">
                            <use xlink:href="#path-9"></use>
                        </mask>
                        <g id="Clip-24"></g>
                        <path d="M-25.1381096,0.039060956 L73.6380859,0.039060956" id="Stroke-23" stroke="#112E51" stroke-width="2" mask="url(#mask-10)"></path>
                    </g>
                    <g id="Group-28" transform="translate(13.108862, 62.162162)">
                        <mask id="mask-12" fill="white">
                            <use xlink:href="#path-11"></use>
                        </mask>
                        <g id="Clip-27"></g>
                        <path d="M-20.1992998,0.039060956 L78.5768957,0.039060956" id="Stroke-26" stroke="#112E51" stroke-width="2" mask="url(#mask-12)"></path>
                    </g>
                    <g id="Group-31" transform="translate(8.642917, 59.675676)">
                        <mask id="mask-14" fill="white">
                            <use xlink:href="#path-13"></use>
                        </mask>
                        <g id="Clip-30"></g>
                        <path d="M-15.7333548,0.039060956 L83.0428407,0.039060956" id="Stroke-29" stroke="#112E51" stroke-width="2" mask="url(#mask-14)"></path>
                    </g>
                    <g id="Group-34" transform="translate(3.848594, 57.189189)">
                        <mask id="mask-16" fill="white">
                            <use xlink:href="#path-15"></use>
                        </mask>
                        <g id="Clip-33"></g>
                        <path d="M-10.9390315,0.039060956 L87.837164,0.039060956" id="Stroke-32" stroke="#112E51" stroke-width="2" mask="url(#mask-16)"></path>
                    </g>
                    <g id="Group-37" transform="translate(0.000000, 54.702703)">
                        <mask id="mask-18" fill="white">
                            <use xlink:href="#path-17"></use>
                        </mask>
                        <g id="Clip-36"></g>
                        <path d="M-7.09043772,0.039060956 L91.6857578,0.039060956" id="Stroke-35" stroke="#112E51" stroke-width="2" mask="url(#mask-18)"></path>
                    </g>
                    <g id="Group-40" transform="translate(0.000000, 52.216216)">
                        <mask id="mask-20" fill="white">
                            <use xlink:href="#path-19"></use>
                        </mask>
                        <g id="Clip-39"></g>
                        <path d="M-7.09043772,0.039060956 L91.6857578,0.039060956" id="Stroke-38" stroke="#112E51" stroke-width="2" mask="url(#mask-20)"></path>
                    </g>
                    <g id="Group-43" transform="translate(0.000000, 49.729730)">
                        <mask id="mask-22" fill="white">
                            <use xlink:href="#path-21"></use>
                        </mask>
                        <g id="Clip-42"></g>
                        <path d="M-7.09043772,0.039060956 L91.6857578,0.039060956" id="Stroke-41" stroke="#112E51" stroke-width="2" mask="url(#mask-22)"></path>
                    </g>
                    <g id="Group-46" transform="translate(0.000000, 47.243243)">
                        <mask id="mask-24" fill="white">
                            <use xlink:href="#path-23"></use>
                        </mask>
                        <g id="Clip-45"></g>
                        <path d="M-7.09043772,0.039060956 L91.6857578,0.039060956" id="Stroke-44" stroke="#112E51" stroke-width="2" mask="url(#mask-24)"></path>
                    </g>
                    <g id="Group-49" transform="translate(0.000000, 44.756757)">
                        <mask id="mask-26" fill="white">
                            <use xlink:href="#path-25"></use>
                        </mask>
                        <g id="Clip-48"></g>
                        <path d="M-7.09043772,0.039060956 L91.6857578,0.039060956" id="Stroke-47" stroke="#112E51" stroke-width="2" mask="url(#mask-26)"></path>
                    </g>
                    <g id="Group-52" transform="translate(0.000000, 42.270270)">
                        <mask id="mask-28" fill="white">
                            <use xlink:href="#path-27"></use>
                        </mask>
                        <g id="Clip-51"></g>
                        <path d="M-7.09043772,0.039060956 L91.6857578,0.039060956" id="Stroke-50" stroke="#112E51" stroke-width="2" mask="url(#mask-28)"></path>
                    </g>
                    <g id="Group-55" transform="translate(0.000000, 39.783784)">
                        <mask id="mask-30" fill="white">
                            <use xlink:href="#path-29"></use>
                        </mask>
                        <g id="Clip-54"></g>
                        <path d="M-7.09043772,0.039060956 L91.6857578,0.039060956" id="Stroke-53" stroke="#112E51" stroke-width="2" mask="url(#mask-30)"></path>
                    </g>
                    <g id="Group-58" transform="translate(0.000000, 37.297297)">
                        <mask id="mask-32" fill="white">
                            <use xlink:href="#path-31"></use>
                        </mask>
                        <g id="Clip-57"></g>
                        <path d="M-7.09043772,0.039060956 L91.6857578,0.039060956" id="Stroke-56" stroke="#112E51" stroke-width="2" mask="url(#mask-32)"></path>
                    </g>
                    <g id="Group-61" transform="translate(0.000000, 34.810811)">
                        <mask id="mask-34" fill="white">
                            <use xlink:href="#path-33"></use>
                        </mask>
                        <g id="Clip-60"></g>
                        <path d="M-7.09043772,0.039060956 L91.6857578,0.039060956" id="Stroke-59" stroke="#112E51" stroke-width="2" mask="url(#mask-34)"></path>
                    </g>
                    <g id="Group-64" transform="translate(0.000000, 32.324324)">
                        <mask id="mask-36" fill="white">
                            <use xlink:href="#path-35"></use>
                        </mask>
                        <g id="Clip-63"></g>
                        <path d="M-7.09043772,0.039060956 L91.6857578,0.039060956" id="Stroke-62" stroke="#112E51" stroke-width="2" mask="url(#mask-36)"></path>
                    </g>
                    <g id="Group-67" transform="translate(0.000000, 29.837838)">
                        <mask id="mask-38" fill="white">
                            <use xlink:href="#path-37"></use>
                        </mask>
                        <g id="Clip-66"></g>
                        <path d="M-7.09043772,0.039060956 L91.6857578,0.039060956" id="Stroke-65" stroke="#112E51" stroke-width="2" mask="url(#mask-38)"></path>
                    </g>
                    <g id="Group-70" transform="translate(0.000000, 27.351351)">
                        <mask id="mask-40" fill="white">
                            <use xlink:href="#path-39"></use>
                        </mask>
                        <g id="Clip-69"></g>
                        <path d="M-7.09043772,0.039060956 L91.6857578,0.039060956" id="Stroke-68" stroke="#112E51" stroke-width="2" mask="url(#mask-40)"></path>
                    </g>
                    <g id="Group-73" transform="translate(0.000000, 24.864865)">
                        <mask id="mask-42" fill="white">
                            <use xlink:href="#path-41"></use>
                        </mask>
                        <g id="Clip-72"></g>
                        <path d="M-7.09043772,0.039060956 L91.6857578,0.039060956" id="Stroke-71" stroke="#112E51" stroke-width="2" mask="url(#mask-42)"></path>
                    </g>
                    <g id="Group-76" transform="translate(0.000000, 22.378378)">
                        <mask id="mask-44" fill="white">
                            <use xlink:href="#path-43"></use>
                        </mask>
                        <g id="Clip-75"></g>
                        <path d="M-7.09043772,0.039060956 L91.6857578,0.039060956" id="Stroke-74" stroke="#112E51" stroke-width="2" mask="url(#mask-44)"></path>
                    </g>
                    <g id="Group-79" transform="translate(0.000000, 19.891892)">
                        <mask id="mask-46" fill="white">
                            <use xlink:href="#path-45"></use>
                        </mask>
                        <g id="Clip-78"></g>
                        <path d="M-7.09043772,0.039060956 L91.6857578,0.039060956" id="Stroke-77" stroke="#112E51" stroke-width="2" mask="url(#mask-46)"></path>
                    </g>
                    <g id="Group-82" transform="translate(0.000000, 17.405405)">
                        <mask id="mask-48" fill="white">
                            <use xlink:href="#path-47"></use>
                        </mask>
                        <g id="Clip-81"></g>
                        <path d="M-7.09043772,0.039060956 L91.6857578,0.039060956" id="Stroke-80" stroke="#112E51" stroke-width="2" mask="url(#mask-48)"></path>
                    </g>
                    <g id="Group-85" transform="translate(0.000000, 14.918919)">
                        <mask id="mask-50" fill="white">
                            <use xlink:href="#path-49"></use>
                        </mask>
                        <g id="Clip-84"></g>
                        <path d="M-7.09043772,0.039060956 L91.6857578,0.039060956" id="Stroke-83" stroke="#112E51" stroke-width="2" mask="url(#mask-50)"></path>
                    </g>
                    <g id="Group-88" transform="translate(0.000000, 12.432432)">
                        <mask id="mask-52" fill="white">
                            <use xlink:href="#path-51"></use>
                        </mask>
                        <g id="Clip-87"></g>
                        <path d="M-7.09043772,0.039060956 L91.6857578,0.039060956" id="Stroke-86" stroke="#112E51" stroke-width="2" mask="url(#mask-52)"></path>
                    </g>
                    <g id="Group-91" transform="translate(0.000000, 9.945946)">
                        <mask id="mask-54" fill="white">
                            <use xlink:href="#path-53"></use>
                        </mask>
                        <g id="Clip-90"></g>
                        <path d="M-7.09043772,0.039060956 L91.6857578,0.039060956" id="Stroke-89" stroke="#112E51" stroke-width="2" mask="url(#mask-54)"></path>
                    </g>
                    <g id="Group-94" transform="translate(0.000000, 7.459459)">
                        <mask id="mask-56" fill="white">
                            <use xlink:href="#path-55"></use>
                        </mask>
                        <g id="Clip-93"></g>
                        <path d="M-7.09043772,0.039060956 L91.6857578,0.039060956" id="Stroke-92" stroke="#112E51" stroke-width="2" mask="url(#mask-56)"></path>
                    </g>
                    <g id="Group-97" transform="translate(0.000000, 4.972973)">
                        <mask id="mask-58" fill="white">
                            <use xlink:href="#path-57"></use>
                        </mask>
                        <g id="Clip-96"></g>
                        <path d="M-7.09043772,0.039060956 L91.6857578,0.039060956" id="Stroke-95" stroke="#112E51" stroke-width="2" mask="url(#mask-58)"></path>
                    </g>
                    <g id="Group-100" transform="translate(0.000000, 2.486486)">
                        <mask id="mask-60" fill="white">
                            <use xlink:href="#path-59"></use>
                        </mask>
                        <g id="Clip-99"></g>
                        <path d="M-7.09043772,0.039060956 L91.6857578,0.039060956" id="Stroke-98" stroke="#112E51" stroke-width="2" mask="url(#mask-60)"></path>
                    </g>
                    <g id="Group-103">
                        <mask id="mask-62" fill="white">
                            <use xlink:href="#path-61"></use>
                        </mask>
                        <g id="Clip-102"></g>
                        <path d="M-7.09043772,0.039060956 L91.6857578,0.039060956" id="Stroke-101" stroke="#112E51" stroke-width="2" mask="url(#mask-62)"></path>
                    </g>
                </g>
                <polygon id="Fill-108" fill="#112E51" points="13.0878459 35.2956757 75.3754975 35.2956757 75.3754975 30.5906216 13.0878459 30.5906216"></polygon>
                <polygon id="Fill-109" stroke="#ECECEC" fill="#FFFFFF" points="20.6318778 35.2956757 69.1235816 35.2956757 69.1235816 0 20.6318778 0"></polygon>
                <g id="Group-114" transform="translate(35.806371, 4.458892)">
                    <path d="M2.04034579,21.8823243 L14.7435819,21.8823243 L14.7435819,9.09121622 L2.04034579,9.09121622 L2.04034579,21.8823243 Z M16.3277051,24.108973 L1.41311695,24.108973 C0.802556589,24.108973 0.307440909,23.6104324 0.307440909,22.9956486 L0.307440909,7.97789189 C0.307440909,7.36310811 0.802556589,6.86456757 1.41311695,6.86456757 L16.3277051,6.86456757 C16.9382655,6.86456757 17.4333812,7.36310811 17.4333812,7.97789189 L17.4333812,22.9956486 C17.4333812,23.6104324 16.9382655,24.108973 16.3277051,24.108973 L16.3277051,24.108973 Z" id="Fill-110" fill="#112E51"></path>
                    <path d="M10.3595857,20.2398135 C9.89657224,20.2398135 9.44034968,20.0819216 9.07487776,19.7947324 L4.02000595,15.8287865 C3.11126495,15.1145432 2.94828423,13.7886243 3.65638608,12.8729757 C4.05519497,12.3570297 4.65711241,12.0611378 5.30718325,12.0611378 C5.77698753,12.0611378 6.22086306,12.2153 6.59189115,12.5062189 L10.1138799,15.2705703 L22.4275673,1.57748919 C22.8232895,1.13738108 23.3887832,0.884381081 23.978971,0.884381081 C24.4981633,0.884381081 24.9963658,1.07770541 25.3815929,1.42892162 C26.2366244,2.20781351 26.3020636,3.54243514 25.5285225,4.40338108 L11.9103719,19.547327 C11.5140324,19.9874351 10.9491561,20.2398135 10.3595857,20.2398135" id="Fill-112" fill="#E31C3D"></path>
                    <path d="M23.9789092,0.262945946 L23.9789092,0.262945946 C23.2146284,0.262945946 22.4824499,0.589918919 21.9700484,1.15932432 L10.0409707,14.4253514 L6.97150041,12.0159459 C6.49799202,11.6442162 5.9071869,11.4397027 5.30712152,11.4397027 C4.46505445,11.4397027 3.68595721,11.8226216 3.16923423,12.4908649 C2.25123297,13.6769189 2.46298444,15.3938378 3.64089057,16.3188108 L8.69514502,20.2853784 C9.16927076,20.6564865 9.76007588,20.861 10.3595239,20.861 C11.1238047,20.861 11.8559833,20.534027 12.3683848,19.9646216 L25.9859181,4.82067568 C26.9878791,3.70610811 26.903302,1.978 25.7963912,0.968486486 C25.2969541,0.513459459 24.6518221,0.262945946 23.9789092,0.262945946 M23.9789092,1.50618919 C24.3314168,1.50618919 24.685159,1.633 24.9679059,1.88972973 C25.571058,2.43986486 25.616742,3.37851351 25.0703862,3.98645946 L11.4528529,19.1297838 C11.1633152,19.4517838 10.7626543,19.6177568 10.3595239,19.6177568 C10.0422054,19.6177568 9.72241746,19.5151892 9.45448703,19.3044595 L4.39961522,15.3385135 C3.75756995,14.8343784 3.64335997,13.9013243 4.14341446,13.2548378 C4.43356954,12.8793784 4.8681848,12.6829459 5.30712152,12.6829459 C5.62382269,12.6829459 5.94299328,12.7855135 6.21215841,12.9962432 L10.1866656,16.1155405 L22.8855802,1.99416216 C23.1757353,1.67091892 23.5763962,1.50618919 23.9789092,1.50618919" id="Fill-113" fill="#FFFFFF"></path>
                </g>
            </g>
        </g>
    </g>
</svg>