<svg version="1.1" id="Layer_1" xmlns="http://www.w3.org/2000/svg" xmlns:xlink="http://www.w3.org/1999/xlink" x="0px" y="0px"
	 viewBox="0 0 157 35" enable-background="new 0 0 157 35" xml:space="preserve">
<path fill="#103759" d="M102.2,23.2L102.2,23.2c1.4,0,2.6,1.1,2.6,2.5c0,1.4-1.1,2.5-2.5,2.5h0c-1.4,0-2.5-1.1-2.5-2.5
	C99.7,24.3,100.8,23.2,102.2,23.2z"/>
<path fill="#103759" d="M67.4,10.9h3.1V5.6h5.2v5.4h3.7v3.6h-3.7v7.6c0,1.5,0.5,2.3,2.5,2.3c0.4,0,0.9,0,1.2-0.1v3.6
	c-0.8,0.2-2,0.3-3.2,0.3c-4,0-5.8-1.8-5.8-5.1v-8.6h-3.1V10.9L67.4,10.9z"/>
<path fill="#103759" d="M48.4,10.9L42,27.9h-5.6L30,10.9h5.5l3.7,11.7h0.1l3.7-11.7H48.4L48.4,10.9z"/>
<path fill="#103759" d="M48.6,19.4c0-5,3.1-8.9,9-8.9c5.9,0,9,3.8,9,8.8c0,5-3.1,8.8-9,8.8C51.8,28.2,48.6,24.5,48.6,19.4L48.6,19.4
	z M54,19.4c0,2.8,1.2,5,3.6,5s3.7-2.1,3.7-5s-1.2-5-3.6-5C55.3,14.4,54,16.6,54,19.4z"/>
<path fill="#103759" d="M97.1,25.2c-1.5,1.8-3.7,3-7.3,3c-6.1,0-9.1-3.6-9.1-8.8s3-8.9,8.7-8.9c5.7,0,8.3,3.6,8.3,8.3
	c0,0.7,0,1.5-0.1,2H86c0.3,2.2,1.4,3.6,4,3.6c1.5,0,2.8-0.6,3.9-2L97.1,25.2L97.1,25.2z M92.6,17.8c-0.2-2.1-1-3.4-3.2-3.4
	c-2.2,0-3.1,1.3-3.4,3.4H92.6z"/>
<path fill="#103759" d="M121.7,26.3c0,5.2-3.3,8.5-8,8.5c-2.6,0-4.6-0.8-6.1-1.7l0.9-1.6c1.4,0.9,3.1,1.6,5.2,1.6c3.4,0,6-2.5,6-7
	v-2.3h-0.1c-1.2,2.3-3.4,3.7-6.2,3.7c-4.6,0-7.3-3.8-7.3-8.4c0-4.7,2.8-8.6,7.5-8.6c2.9,0,4.9,1.5,6.1,3.6h0.1l0.1-3.2h1.8V26.3
	L121.7,26.3z M119.9,19.1c0-3.9-2.1-6.9-5.9-6.9c-3.7,0-5.9,3.1-5.9,6.9s2,6.9,5.9,6.9S119.9,22.9,119.9,19.1z"/>
<path fill="#103759" d="M124.2,19.4c0-4.8,3-8.8,8.2-8.8s8.2,3.9,8.2,8.8c0,4.9-3,8.8-8.2,8.8C127.2,28.2,124.2,24.2,124.2,19.4z
	 M126.2,19.4c0,3.9,2.2,7.1,6.3,7.1c4,0,6.3-3.2,6.3-7.1c0-3.9-2.2-7.2-6.3-7.2C128.4,12.2,126.2,15.5,126.2,19.4z"/>
<path fill="#103759" d="M157,10.9l-6.9,16.9h-2l-6.9-16.9h2.1l5.9,14.7h0.1l5.8-14.7H157L157,10.9z"/>
<path fill="#103759" d="M26.8,27.9H0V3.7h17.1l-0.8,1.8H1.8v20.6h23.1V10.9h1.8V27.9z"/>
<path fill="#DE3245" d="M27.6,0h-6.2l-0.8,1.8h6.2L27.6,0z M17.1,9.1h6.2l0.8-1.8h-6.2L17.1,9.1z M18.8,5.5H25l0.8-1.8h-6.2
	L18.8,5.5z M15.4,12.7h6.2l0.8-1.8h-6.2L15.4,12.7z M13.7,16.4h6.2l0.8-1.8h-6.2L13.7,16.4z M12,20h6.2l0.8-1.8h-6.2L12,20z
	 M10.3,23.7h6.2l0.8-1.8h-6.2L10.3,23.7z"/>
<path fill="#103759" d="M10.5,10.9H4.3l5,10.6l3.1-6.6L10.5,10.9z"/>
</svg>
