<svg version="1.1" xmlns="http://www.w3.org/2000/svg" xmlns:xlink="http://www.w3.org/1999/xlink" x="0px" y="0px"
	 viewBox="0 0 170 210" width="200" height="247" enable-background="new 0 0 170 210" xml:space="preserve">
<polygon fill="#112E51" points="26.6,131.1 10.8,156 82.4,203.1 154,156 138.2,131.1 "/>
<polygon fill="#0071BC" points="82.4,17.1 14,61.5 14,151.3 82.4,196.3 150.7,151.3 150.7,61.5 "/>
<polygon fill="#112E51" points="150.7,151.3 150.7,61.5 82.4,108.1 82.4,196.3 "/>
<g>
	<polygon fill="#112E51" points="66.8,97.5 14,97.5 14,99.5 69.8,99.5 	"/>
	<polygon fill="#112E51" points="72.7,101.5 14,101.5 14,103.5 75.6,103.5 	"/>
	<polygon fill="#112E51" points="61,93.5 14,93.5 14,95.5 63.9,95.5 	"/>
	<polygon fill="#112E51" points="78.6,105.5 14,105.5 14,107.5 81.5,107.5 	"/>
	<rect x="14" y="133.5" fill="#112E51" width="68.4" height="2"/>
	<polygon fill="#112E51" points="49.2,85.5 14,85.5 14,87.5 52.2,87.5 	"/>
	<rect x="14" y="117.5" fill="#112E51" width="68.4" height="2"/>
	<rect x="14" y="121.5" fill="#112E51" width="68.4" height="2"/>
	<rect x="14" y="125.5" fill="#112E51" width="68.4" height="2"/>
	<rect x="14" y="129.5" fill="#112E51" width="68.4" height="2"/>
	<rect x="14" y="109.5" fill="#112E51" width="68.4" height="2"/>
	<polygon fill="#112E51" points="43.4,81.5 14,81.5 14,83.5 46.3,83.5 	"/>
	<rect x="14" y="113.5" fill="#112E51" width="68.4" height="2"/>
	<polygon fill="#112E51" points="55.1,89.5 14,89.5 14,91.5 58,91.5 	"/>
	<polygon fill="#112E51" points="37.5,77.5 14,77.5 14,79.5 40.4,79.5 	"/>
	<polygon fill="#112E51" points="31.6,73.5 14,73.5 14,75.5 34.5,75.5 	"/>
	<polygon fill="#112E51" points="25.7,69.5 14,69.5 14,71.5 28.7,71.5 	"/>
	<polygon fill="#112E51" points="14,61.5 14,63.5 16.9,63.5 	"/>
	<polygon fill="#112E51" points="19.9,65.5 14,65.5 14,67.5 22.8,67.5 	"/>
	<polygon fill="#112E51" points="82.4,189.5 72.1,189.5 75.1,191.5 82.4,191.5 	"/>
	<polygon fill="#112E51" points="82.4,193.5 78.1,193.5 81.2,195.5 82.4,195.5 	"/>
	<rect x="14" y="141.5" fill="#112E51" width="68.4" height="2"/>
	<polygon fill="#112E51" points="82.4,153.5 17.3,153.5 20.4,155.5 82.4,155.5 	"/>
	<polygon fill="#112E51" points="82.4,149.5 14,149.5 14,151.3 14.3,151.5 82.4,151.5 	"/>
	<polygon fill="#112E51" points="82.4,185.5 66,185.5 69,187.5 82.4,187.5 	"/>
	<polygon fill="#112E51" points="82.4,157.5 23.4,157.5 26.5,159.5 82.4,159.5 	"/>
	<rect x="14" y="145.5" fill="#112E51" width="68.4" height="2"/>
	<rect x="14" y="137.5" fill="#112E51" width="68.4" height="2"/>
	<polygon fill="#112E51" points="82.4,161.5 29.5,161.5 32.5,163.5 82.4,163.5 	"/>
	<polygon fill="#112E51" points="82.4,181.5 59.9,181.5 62.9,183.5 82.4,183.5 	"/>
	<polygon fill="#112E51" points="82.4,165.5 35.6,165.5 38.6,167.5 82.4,167.5 	"/>
	<polygon fill="#112E51" points="82.4,177.5 53.8,177.5 56.9,179.5 82.4,179.5 	"/>
	<polygon fill="#112E51" points="82.4,173.5 47.7,173.5 50.8,175.5 82.4,175.5 	"/>
	<polygon fill="#112E51" points="82.4,169.5 41.7,169.5 44.7,171.5 82.4,171.5 	"/>
</g>
<rect x="31.3" y="57.6" fill="#112E51" width="100.9" height="7.6"/>
<g class="ballot">
	<rect x="43.6" y="8.4" fill="#FFFFFF" width="78.5" height="69.3"/>
	<path fill="#112E51" d="M94.6,54.4H70.4c-1,0-1.8-0.8-1.8-1.8V28.5c0-1,0.8-1.8,1.8-1.8h24.2c1,0,1.8,0.8,1.8,1.8v24.2
		C96.4,53.6,95.6,54.4,94.6,54.4z M71.4,50.8H92V30.3H71.4V50.8z"/>
	<g>
		<path fill="#E31C3D" d="M84.9,48.2c-0.7,0-1.5-0.3-2.1-0.7l-8.2-6.4c-1.5-1.1-1.7-3.3-0.6-4.8c0.6-0.8,1.6-1.3,2.7-1.3
			c0.8,0,1.5,0.2,2.1,0.7l5.7,4.4l19.9-22c0.6-0.7,1.6-1.1,2.5-1.1c0.8,0,1.6,0.3,2.3,0.9c1.4,1.3,1.5,3.4,0.2,4.8l-22,24.4
			C86.8,47.8,85.9,48.2,84.9,48.2z"/>
		<g>
			<path fill="#FFFFFF" d="M107,18.1c0.6,0,1.1,0.2,1.6,0.6c1,0.9,1.1,2.4,0.2,3.4L86.7,46.4c-0.5,0.5-1.1,0.8-1.8,0.8
				c-0.5,0-1-0.2-1.5-0.5l-8.2-6.4c-1-0.8-1.2-2.3-0.4-3.4c0.5-0.6,1.2-0.9,1.9-0.9c0.5,0,1,0.2,1.5,0.5l6.4,5l20.6-22.7
				C105.7,18.3,106.3,18.1,107,18.1 M107,16.1L107,16.1c-1.2,0-2.4,0.5-3.3,1.4L84.4,38.9l-5-3.9c-0.8-0.6-1.7-0.9-2.7-0.9
				c-1.4,0-2.6,0.6-3.5,1.7c-1.5,1.9-1.1,4.7,0.8,6.2l8.2,6.4c0.8,0.6,1.7,0.9,2.7,0.9c1.2,0,2.4-0.5,3.3-1.4l22.1-24.4
				c1.6-1.8,1.5-4.6-0.3-6.2C109.1,16.5,108.1,16.1,107,16.1L107,16.1z"/>
		</g>
	</g>
</g>
<rect x="42.4" y="65.2" fill="#0071BC" width="80.9" height="13.5"/>
</svg>
